<svg xmlns="http://www.w3.org/2000/svg" viewBox="0 0 800 622.22"><defs><style>.cls-1{fill:#5e88d3;fill-rule:evenodd;}</style></defs><g id="Layer_2" data-name="Layer 2"><g id="Layer_1-2" data-name="Layer 1"><path class="cls-1" d="M0,133.44A44.39,44.39,0,0,1,44.44,88.89H200.1c12.22,0,26.55-8.85,32-19.73L256.8,19.73C262.25,8.83,276.8,0,288.49,0h223c12,0,26.25,8.85,31.69,19.73l24.71,49.43c5.45,10.9,19.42,19.73,32,19.73H755.56A44.69,44.69,0,0,1,800,133.44V577.67a44.36,44.36,0,0,1-44.15,44.55H44.15C19.77,622.22,0,602,0,577.67ZM400,533.33A177.78,177.78,0,1,0,222.22,355.56,177.77,177.77,0,0,0,400,533.33Zm0-44.44A133.34,133.34,0,1,0,266.67,355.56,133.33,133.33,0,0,0,400,488.89ZM666.67,311.11a44.45,44.45,0,1,0-44.45-44.44A44.44,44.44,0,0,0,666.67,311.11ZM88.89,66.67a22,22,0,0,1,22.43-22.23h44a22.56,22.56,0,0,1,22.43,22.23V88.89H88.89Z"></path></g></g></svg>