<svg xmlns="http://www.w3.org/2000/svg" viewBox="0 0 790.93 560"><defs><style>.cls-1{fill:#5e88d3;}</style></defs><g id="Layer_2" data-name="Layer 2"><g id="Layer_1-2" data-name="Layer 1"><path class="cls-1" d="M156.58,80H27.78C13,80-1.82,92.8.18,113.6l62.4,399.6s74-294.4,88.4-365.2c4.4-21.2,24.4-28,39.2-28h206.4s-28-83.2-30.8-92.4C361,10,352.18,0,334.58,0H202.18c-14.4,0-28,9.2-32,25.6C166.58,41.6,156.58,80,156.58,80Zm195.2,0h-160s16.8-40,34.8-40h85.2C331,40,351.78,80,351.78,80ZM103.38,530C91,548.8,73,560,53,560h629.2c21.6,0,36.8-12.4,41.2-33.2,17.6-87.6,67.2-337.6,67.2-337.6,2.8-20-12-29.2-24.8-29.2H636.58V101.2c0-6.4-10.4-21.2-26.4-21.2H459.78C439,80,425,103.2,425,103.2L396.58,160H220.18c-12.8,0-25.2,7.6-27.6,20,0,0-63.6,268-68.8,293.2C121,488,115,512.8,103.38,530Zm508.4-370H436.58s23.2-40,45.2-40h91.6C601.78,120,611.78,160,611.78,160Z"></path></g></g></svg>